<svg version="1.0" xmlns="http://www.w3.org/2000/svg"  width="184.0pt" height="72.0pt" viewBox="0 0 184.000000 72.000000"  preserveAspectRatio="xMidYMid meet">  <g transform="translate(0.000000,72.000000) scale(0.100000,-0.100000)" fill="#000000" stroke="none"> <path d="M520 680 c-41 -41 -13 -112 45 -112 58 0 86 71 45 112 -11 11 -31 20 -45 20 -14 0 -34 -9 -45 -20z"/> <path d="M40 683 c0 -5 7 -17 15 -27 22 -29 22 -413 0 -442 -8 -10 -15 -22 -15 -26 0 -5 41 -8 92 -8 87 0 90 1 75 18 -26 29 -24 232 2 232 4 0 34 -55 67 -122 l59 -123 157 -3 c87 -1 158 -1 158 2 0 2 -7 17 -15 32 -11 22 -15 66 -15 183 l0 153 -22 -5 c-13 -3 -44 -9 -70 -12 -52 -8 -56 -14 -32 -50 13 -19 15 -47 12 -144 -5 -183 -28 -186 -108 -16 -46 98 -89 155 -116 155 -28 0 -12 24 80 116 l94 94 -63 0 c-60 0 -62 -1 -58 -24 4 -18 -11 -41 -68 -104 -41 -45 -75 -79 -78 -77 -2 3 -3 41 -3 86 1 62 5 86 18 100 17 18 15 19 -74 19 -51 0 -92 -3 -92 -7z"/> <path d="M1132 678 c-41 -9 -42 -10 -27 -31 22 -32 22 -412 -1 -445 l-15 -22 90 0 c50 0 91 3 91 8 0 4 -7 16 -15 26 -16 21 -22 156 -7 156 5 0 21 -33 37 -72 45 -118 44 -118 125 -118 73 0 84 6 50 28 -11 6 -33 40 -48 75 -26 56 -79 117 -103 117 -23 0 -3 22 71 76 44 32 80 63 80 67 0 4 -26 7 -57 5 -53 -3 -58 -5 -58 -27 0 -16 -17 -38 -52 -68 l-53 -46 0 142 0 141 -32 -1 c-18 -1 -52 -5 -76 -11z"/> <path d="M1728 559 c-21 -12 -24 -62 -5 -77 6 -5 21 -12 32 -14 17 -3 20 -10 17 -53 -7 -109 -51 -185 -109 -185 -35 0 -43 34 -43 186 l0 134 -75 0 c-75 0 -86 -5 -62 -28 8 -9 14 -59 17 -142 6 -147 18 -174 85 -199 33 -13 43 -13 81 1 43 15 43 15 32 -6 -27 -52 -96 -116 -125 -116 -8 0 -10 11 -6 35 7 43 -9 65 -48 65 -70 0 -83 -92 -18 -125 75 -39 164 5 230 115 119 196 116 479 -3 409z"/> <path d="M728 538 c-60 -11 -67 -20 -43 -52 21 -28 21 -244 0 -272 -8 -10 -15 -22 -15 -26 0 -5 38 -8 85 -8 47 0 85 2 85 4 0 2 -7 17 -15 32 -18 35 -20 185 -4 233 18 51 56 64 89 31 18 -18 20 -33 20 -140 0 -117 1 -122 26 -147 21 -21 32 -24 61 -20 36 6 63 23 63 38 0 5 -7 9 -15 9 -12 0 -15 19 -15 115 0 128 -12 173 -54 200 -35 23 -113 16 -155 -14 l-31 -22 0 25 c0 15 -5 25 -12 25 -7 -1 -39 -6 -70 -11z"/> </g> </svg>
