<svg version="1.0" xmlns="http://www.w3.org/2000/svg" width="300pt" height="100pt"
     viewBox="0 0 300.000000 100.000000" preserveAspectRatio="xMidYMid meet">
    <g transform="translate(-30.000000,140.000000) scale(0.100000,-0.100000)" fill="#ffffff" stroke="none">
        <path d="M310 1300 c0 -79 0 -80 25 -80 l25 0 0 -215 0 -215 -25 0 c-25 0 -25 -1 -25 -80 l0 -80 190 0 190 0 0 80 0 80 -30 0 -30 0 0 80 c0 79 0 80 26 80 28 0 65 -16 76 -34 4 -6 8 -73 8 -148 l0 -138 155 0 155 0 0 80 c0 79 0 80 -25 80 -24 0 -25 3 -25 54 0 73 -13 103 -54 122 l-34 17 38 36 c78 74 81 222 6 297 -56 56 -106 64 -393 64 l-253 0 0 -80z m414 -96 c18 -18 21 -85 6 -115 -8 -14 -21 -19 -55 -19 l-45 0 0 75 0 75 39 0 c23 0 46 -7 55 -16z"/>
        <path d="M2310 1256 c0 -46 -18 -76 -50 -82 l-30 -6 0 -79 c0 -78 0 -79 25 -79 l25 0 0 -128 c0 -113 3 -133 23 -172 33 -67 72 -85 182 -85 50 0 107 6 128 13 l38 14 -3 71 -3 72 -51 -3 c-75 -5 -84 7 -84 124 l0 94 65 0 65 0 0 80 0 80 -65 0 -65 0 0 55 0 55 -100 0 c-99 0 -100 0 -100 -24z"/>
        <path d="M1905 1183 c-105 -14 -165 -58 -185 -134 -17 -61 -3 -108 44 -154 42 -41 73 -54 179 -75 46 -9 57 -15 55 -28 -3 -15 -19 -17 -131 -15 l-127 1 0 -64 0 -63 38 -11 c62 -18 222 -24 281 -11 62 13 114 48 136 91 24 46 20 140 -8 181 -28 43 -93 76 -165 84 -32 3 -68 11 -81 16 -20 8 -21 12 -10 26 12 14 30 15 131 9 l118 -6 0 64 0 65 -52 10 c-66 12 -183 20 -223 14z"/>
        <path d="M1050 1090 c0 -72 2 -80 19 -80 17 0 19 -11 23 -127 3 -108 7 -136 27 -175 29 -61 72 -88 139 -88 62 0 98 13 135 48 l27 26 0 -32 0 -32 135 0 135 0 0 80 c0 79 0 80 -25 80 l-25 0 0 190 0 190 -135 0 -135 0 0 -80 c0 -79 0 -80 25 -80 25 0 25 0 25 -98 0 -106 -7 -122 -49 -122 -54 0 -56 5 -59 200 l-3 180 -130 0 -129 0 0 -80z"/>
        <path d="M2670 1090 c0 -72 2 -80 19 -80 17 0 19 -11 23 -127 6 -183 36 -241 134 -263 49 -11 128 10 165 46 l29 28 0 -41 c0 -49 -17 -70 -66 -79 -34 -6 -176 2 -221 13 -22 5 -23 3 -23 -75 l0 -81 58 -12 c31 -7 109 -13 172 -14 108 0 119 2 175 30 64 32 97 71 115 134 5 20 10 160 10 319 l0 282 -135 0 -135 0 0 -80 c0 -79 0 -80 25 -80 25 0 25 0 25 -98 0 -106 -7 -122 -49 -122 -54 0 -56 5 -59 200 l-3 180 -130 0 -129 0 0 -80z"/>
    </g>
</svg>
